
<svg xmlns="http://www.w3.org/2000/svg" width="465.362" height="304.639" viewBox="0 0 465.362 304.639">
  <defs>
    <style>
      .cls-1 {
        fill: #006591;
      }

      .cls-2 {
        fill: #076395;
      }

      .cls-3 {
        fill: #076598;
      }

      .cls-4 {
        fill: #076394;
      }

      .cls-5 {
        fill: #505050;
      }

      .cls-6 {
        fill: #5f5e5c;
      }

      .cls-7 {
        fill: #006592;
      }

      .cls-8 {
        fill: #026692;
      }

      .cls-9 {
        fill: #016592;
      }

      .cls-10 {
        fill: #fcfcfc;
      }

      .cls-11 {
        fill: #bcd4e2;
      }

      .cls-12 {
        fill: #fefefe;
      }

      .cls-13 {
        fill: #fdfdfd;
      }

      .cls-14 {
        fill: #eff4f8;
      }

      .cls-15 {
        fill: #d1e2eb;
      }

      .cls-16 {
        fill: #9bc0d4;
      }

      .cls-17 {
        fill: #a5ccdd;
      }

      .cls-18 {
        fill: #f8fafa;
      }

      .cls-19 {
        fill: #156b91;
      }

      .cls-20 {
        fill: #116b93;
      }

      .cls-21 {
        fill: #0a6b96;
      }

      .cls-22 {
        fill: #f9e3bc;
      }

      .cls-23 {
        fill: #83abb2;
      }

      .cls-24 {
        fill: #5190a7;
      }

      .cls-25 {
        fill: #81aab1;
      }

      .cls-26 {
        fill: #f39e2a;
      }
    </style>
  </defs>
  <g id="组_1" data-name="组 1" transform="translate(-0.089 0.004)">
    <path id="路径_1" data-name="路径 1" class="cls-1" d="M448.874,538.305l-1.9.11c-.872.27-1.816-.167-2.665.27H432.953c-.864-.423-1.82,0-2.7-.274l-1.873-.107c-.6-.381-1.325,0-1.942-.293a82.25,82.25,0,0,1-15.277-3.221,90.789,90.789,0,0,1-27.843-13.708,92.854,92.854,0,0,1-15.612-14.241,101.02,101.02,0,0,1-12.113-17.2,78.789,78.789,0,0,1-5.464-11.945,120.28,120.28,0,0,1-3.549-11.549,76.707,76.707,0,0,1-2.09-13.51c-.289-.88.152-1.832-.274-2.7V438.594c.445-.853,0-1.8.282-2.665.034-.632.065-1.264.1-1.9.415-.586,0-1.31.3-1.9a89.484,89.484,0,0,1,6.854-25.234A98.964,98.964,0,0,1,362.8,387.619a93.927,93.927,0,0,1,35.413-28.939,96.043,96.043,0,0,1,22.679-7.265c.354-.069.7-.2,1.051-.3.381.594.065,1.1-.213,1.588a58.21,58.21,0,0,0-5.331,11.956,2.875,2.875,0,0,1-.88,1.439,26.336,26.336,0,0,1-4.615,1.736,80.812,80.812,0,0,0-32.747,22.211A81.251,81.251,0,0,0,398.5,514.864a77.755,77.755,0,0,0,32.774,10.3c22.466,1.8,42.579-4.3,59.851-18.894A81.032,81.032,0,0,0,511.7,408.7a80.518,80.518,0,0,0-32.454-34.826,85.829,85.829,0,0,0-18.175-7.836c-.975-1-1.12-2.376-1.58-3.6a54.519,54.519,0,0,0-4.413-9.417c-.339-.56-.9-1.119-.514-1.9a97.039,97.039,0,0,1,21.324,6.329,94.144,94.144,0,0,1,48.953,48.123,86.94,86.94,0,0,1,7.063,24.023c.255,1.862.567,3.716.857,5.575.255.742-.156,1.565.27,2.285q.038,1.71.088,3.427a43.528,43.528,0,0,1,0,6.831l-.08,3.427c-.426.723,0,1.546-.27,2.285a97.172,97.172,0,0,1-10.757,35.306,91.01,91.01,0,0,1-12.566,18.015,3.806,3.806,0,0,0-3,1.5c-1.5,1.622-3.046,3.195-4.684,4.676a3.96,3.96,0,0,0-1.458,2.856,92.113,92.113,0,0,1-41.025,20.665q-4.227.918-8.491,1.573C450.183,538.305,449.46,537.89,448.874,538.305Z" transform="translate(-228.698 -268.354)"/>
    <path id="路径_2" data-name="路径 2" class="cls-2" d="M1023.24,609.02c-2.266-.659-5.141-.065-6.157-3.252a16.041,16.041,0,0,0-.407-2.151,3.732,3.732,0,0,1,0-1.877,7.649,7.649,0,0,1,5.072-6.58c4.189-1.7,8.255-3.872,10.235-8.419a10.473,10.473,0,0,0,.8-3.172,4.89,4.89,0,0,0-.027-2.806c-.3-.99.042-2.78-.842-2.829-1.078-.057-.784,1.649-1.066,2.589-.975,3.244-2.418,6.039-6.115,6.854a7.383,7.383,0,0,1-2.635-.034c-3.629-.4-5.533-3.164-4.687-6.713a11.955,11.955,0,0,0,.126-2.064c.381-.605.027-1.306.259-1.931l.13-2.612c.419-1.142-.027-2.338.263-3.484l.1-5.712c.491-2.4-.061-4.84.289-7.235.034-1.386.065-2.768.1-4.154.446-.994-.049-2.079.293-3.081q.042-1.142.088-2.25c.415-.731,0-1.569.282-2.319.506-3.777,1.694-4.543,4.665-5.042a6.763,6.763,0,0,1,2.639,0c3.461.811,5.209,3.088,5.487,6.835.971-1.04.583-2.03.624-2.932.411-.594.019-1.3.282-1.9a9.852,9.852,0,0,1,1.021-3.313c1.771-3.526,3.358-4.406,7.235-3.93,2.456.3,3.968,2.014,4.7,5.373a14.919,14.919,0,0,1,.179,1.493c.19,2.692.023,5.388.091,8.084a3.5,3.5,0,0,0,.171,1.843,4.413,4.413,0,0,0,2.547,4.253c1.367.689,2.719,1.1,4.211,0a4.508,4.508,0,0,0,1.466-2.014,37.138,37.138,0,0,0,2.578-10.11c.465-3.617,2.285-8.5,6.359-9.009a11.566,11.566,0,0,1,3.4,0c2.875.922,4.188,3.195,4.455,5.917.445,4.333,3.195,5.582,7.261,5.967.628.061,1.26.031,1.9.042.895.381,1.858,0,2.764.255,3.808.145,7.616.164,11.454,0a9.768,9.768,0,0,1,3.016.031c1.622.168,3.244.164,4.874.4,5.019.762,7.688,3.617,7.7,8.682v21.8c-.427,2.1-.076,4.227-.19,6.34a8.035,8.035,0,0,1-.11,2.049q-.046,2.285-.088,4.535c-.438,1.142,0,2.319-.274,3.457l-.126,2.947c-.358.762,0,1.607-.255,2.384l-.118,2.224c-.381.617,0,1.337-.274,1.965-.031.5-.061,1.009-.088,1.523-.419.59,0,1.31-.3,1.9-.857,4.032-.88,8.24-2.368,12.139-1.6,4.189-3.682,8.042-8.111,9.9a27.8,27.8,0,0,1-6.355,1.664,42.318,42.318,0,0,1-6.443.03,19.624,19.624,0,0,1-7.341-2.224,5.647,5.647,0,0,1-2.666-3.606,11.364,11.364,0,0,1,0-3.008c1.142-3.713,2.666-6.854,6.062-6.508,1.112.114,2.247.046,3.37.057.666.282,1.394.049,2.071.236,4.95.529,6.534-2.81,7.041-7.38.331-2.989.762-5.974.956-8.975.229-3.214.967-6.378.826-9.618.289-.67,0-1.409.263-2.087.027-2.148.175-4.307.042-6.45a30.008,30.008,0,0,0-1.116-6.039q-.748,3.141-1.523,6.287c-3.758,15.966-11.4,29.739-23.54,40.827-3,2.745-6.207,5.5-10.373,6.565a3.96,3.96,0,0,1-1.877,0c-5.205-1.173-6.5-5.845-3.149-10.1,2.829-3.587,6.645-6.035,9.74-9.291a19.253,19.253,0,0,0,4.527-7.349,38.1,38.1,0,0,1,7.178-13.59c1.95-2.247,2.353-5.247,3.02-8.023,1.062-4.409,1.828-8.887,2.719-13.327a.875.875,0,0,0,.084-.716c-.084-.183.118-.468-.183-.529-.03,0-.175.3-.3.43-1.39,4.189-1.961,8.67-3.873,12.7-2.764,5.818-5.27,11.8-8.842,17.162-1.98,2.966-5.064,5.19-7.258,8.107a14.044,14.044,0,0,1-4.882,4.569,19.964,19.964,0,0,0-2.231.91,5.691,5.691,0,0,1-2.254.027c-2.433-.335-3.728-2.117-5.042-4.36a9.8,9.8,0,0,0-.316,3.473c-.43,2.665-.065,5.369-.187,8.05a9.187,9.187,0,0,1-.114,2.243v.4a61.773,61.773,0,0,1,0,7.966c-.514,1.352-.43,3.046-1.9,3.88a11.438,11.438,0,0,1-7.136,1.813c-1.34-.156-2.73-2.608-2.818-4.764-.034-.815-.088-1.63-.129-2.448a59.222,59.222,0,0,1,0-7.97c.034-.739.065-1.481.1-2.22.381-.762,0-1.584.266-2.346a9.069,9.069,0,0,0-1.093-5.3,2.747,2.747,0,0,0-3.568-1.523c-1.485.453-2.936,1.032-4.4,1.554A4.916,4.916,0,0,1,1023.24,609.02Z" transform="translate(-645.021 -382.402)"/>
    <path id="路径_3" data-name="路径 3" class="cls-3" d="M182.354,544.846c4.7,1.276,5.826,4.3,2.978,8.309-2.776,3.907-6.016,7.444-9.139,11.065-2.228,2.574-4.467,5.144-6.66,7.749a3.917,3.917,0,0,0-.48,5.011,38.59,38.59,0,0,0,3.4,4.95,6.268,6.268,0,0,0,6.134,2.1,5.834,5.834,0,0,1,2.254.023l3.012.1c.6.381,1.321,0,1.938.289,1.793.621,3.374,1.485,3.9,3.515a8.757,8.757,0,0,1,0,3.02,4.864,4.864,0,0,1-3.515,3.518c-1.142.327-2.323-.171-3.427.293-4.428.358-4.878,3.393-4.428,7.235a35.267,35.267,0,0,0,.735,3.465,49.71,49.71,0,0,1,0,6.82l-.126,3.332c-.335.632,0,1.356-.267,2-.689,3.949-1.6,7.836-3.7,11.309-3.332,5.51-8.377,8.3-14.668,8.971a17.867,17.867,0,0,1-4.158,0,33.8,33.8,0,0,1-10.761-2.479c-5.331-2.125-5.883-7.052-2.262-11,1.607-1.752,3.861-1.142,5.887-.883,2.346.324,4.543,1.439,6.972,1.352a10.006,10.006,0,0,0,3.994,0,7.115,7.115,0,0,0,5.609-5.834c.1-.849.613-1.615.434-2.494.381-.617,0-1.34.286-1.969.19-4.569.545-9.2-.312-13.708-.617-3.237-1.089-4.741-6.066-5.331-.853-.457-1.809.034-2.665-.3a92.741,92.741,0,0,0-10.692.03,10.111,10.111,0,0,1-3.012-.023,11.834,11.834,0,0,1-6.763-2.056c-2.014-1.287-2.684-1.013-3.355,1.207-.762,2.563-1.356,5.186-2.1,7.76a8.6,8.6,0,0,1-2.665,4.425c-.636-1.276-.034-2.49.27-3.678,1.9-7.364,3.469-14.786,4.649-22.3a115.243,115.243,0,0,0,1.005-19.13c0-.986-.236-2.049.564-2.89,1.592,1.988,1.8,4.375,1.95,6.77.251,3.953-.567,7.825-.921,11.732a17.517,17.517,0,0,0-.1,1.9c.088,4.257,1.82,5.982,6.054,5.483a93.555,93.555,0,0,1,10.426-.27,6.3,6.3,0,0,0,2.97-.506c1.988-1.017,2.342-2.555.971-4.318-.426-.548-.91-1.055-1.363-1.58a5.717,5.717,0,0,1-.293-7.783,32.634,32.634,0,0,1,5.921-6.138,14.534,14.534,0,0,0,3.107-3.046c1.592-2.285.583-4.752-2.136-5.361-2.037-.457-4.025.286-6.039.278-4.68,0-9.367.023-14.036-.221a4.11,4.11,0,0,1-3.922-3.743,10.018,10.018,0,0,1,0-3.4c.423-1.717,1.215-3.111,3.122-3.507,1.656-.35,3.358.152,5.011-.286l13.651-.129c3.046-.126,6.07-.152,9.1,0l9.1.11C179.262,545.021,180.838,544.484,182.354,544.846Z" transform="translate(-95.047 -388.027)"/>
    <path id="路径_4" data-name="路径 4" class="cls-4" d="M81.1,551.707c0,2.844-.065,5.689,0,8.533A97.689,97.689,0,0,1,78.625,582.1c-1.215,5.894-2.665,11.74-4.01,17.607-1.238,1.668-2.2,3.389-.762,5.418.282.381.647.891,1.066,1.013,4.508,1.3,6.576,4.817,8.137,8.815a7.307,7.307,0,0,1,0,3.046c-1.059,2.033-3.21,2.083-5.015,2.761a8.471,8.471,0,0,1-3.02-.034c-1.416-.217-2.186-1.356-3.13-2.231-2.9-2.7-5.62-2.924-8.461-.122-3.427,3.378-6.751,6.831-11.043,9.116-1.321.7-2.665,1.333-4.021,2a5.971,5.971,0,0,1-2.646,0c-4.786-1.592-6.035-6.694-3.023-9.6a93.423,93.423,0,0,1,7.863-6.424c1.485-1.184,3.073-2.25,4.478-3.518,2.376-2.148,2-4.329-.853-5.788a34.876,34.876,0,0,1-5.072-2.966,11.876,11.876,0,0,1-5.026-7.962,21.758,21.758,0,0,1,0-4.927,18.018,18.018,0,0,1,1.226-4.851c2.2-5.042,2.837-10.506,4.242-15.76.19-.7.289-1.432.465-2.14.838-3.378-.762-5.559-4.234-5.818-2.787-.2-4.375-1.428-4.569-3.922-.274-3.347-.149-5.887,2.97-6.816,1.542-.32,3.13.156,4.668-.263,3.53-.727,3.88-2.7,4.493-6.283a11.256,11.256,0,0,0,0-2.056c.381-.613,0-1.333.278-1.961.48-2.875,1.9-4.672,4.276-5.022a12.739,12.739,0,0,1,3.785,0c3.191.807,4.044,3.48,3.583,6.824a21.461,21.461,0,0,0-.126,5.274c.217,2.014,1.466,3.046,3.675,3.244a13.605,13.605,0,0,0,4.729,0l1.489-.088a5.331,5.331,0,0,1,2.258-.019C78.968,549.113,80.605,549.7,81.1,551.707Z" transform="translate(-40.98 -381.15)"/>
    <path id="路径_5" data-name="路径 5" class="cls-5" d="M777.837,774.987c.64-.994,1.74-1.215,2.726-1.626a10.34,10.34,0,0,1,3.008,0,9.972,9.972,0,0,1,3.557,2.422q19.138,19.146,38.306,38.284a9.7,9.7,0,0,1,2.414,3.557,8.646,8.646,0,0,1-.027,3.02,13.492,13.492,0,0,1-3.092,3.994c-2.54,2.483-5.064,4.977-7.524,7.532a6.762,6.762,0,0,1-5.78,2.174c-1.843-.137-2.955-1.318-4.044-2.4q-19.1-18.955-38.078-38.017c-3.564-3.564-3.275-7.166-.56-9.87,1.976-2.825,4.737-4.908,7.041-7.425a6.923,6.923,0,0,1,2.052-1.649Z" transform="translate(-490.286 -529.752)"/>
    <path id="路径_6" data-name="路径 6" class="cls-6" d="M522.772,349.9a81.307,81.307,0,0,1,6.519-14.793c2.734-3.667,5.643-7.147,10.121-8.788a34.644,34.644,0,0,1,3.587-.929,32.7,32.7,0,0,1,5.289,0,20.65,20.65,0,0,1,12.634,8.655,8.95,8.95,0,0,0,1.051,1.066,62.426,62.426,0,0,1,6.553,14.748,3.008,3.008,0,0,1,1.257,2.045,117.5,117.5,0,0,1,3.808,18c.293,1.523.347,3.046.636,4.569a9.868,9.868,0,0,1,.107,1.523,12.317,12.317,0,0,1-.145,2.151,2.579,2.579,0,0,1-.213.594c-1.314,1.809-2.715,2.391-4.516,1.9-1.611-.449-2.433-1.615-2.6-3.747a7.048,7.048,0,0,0-.236-1.493,5.911,5.911,0,0,1-.148-.929c.053-1.455-.381-2.86-.434-4.307a110.874,110.874,0,0,0-4.322-19.039,19.307,19.307,0,0,0-1.321-3.141c-1.691-5.464-4.28-10.342-8.975-13.86-4.006-2.665-7.764-2.665-11.583-.042-3.393,2.25-5.331,5.67-7.075,9.158a26.033,26.033,0,0,0-2.018,5.087,98.311,98.311,0,0,0-4.733,19.568c-.118.762-.244,1.5-.381,2.25.034,1.474-.445,2.9-.423,4.371a5.9,5.9,0,0,1-.16,1.291,13.528,13.528,0,0,0-.316,2.06,3.541,3.541,0,0,1-3.865,2.913,3.365,3.365,0,0,1-3.145-3.427c-.038-.632,0-1.264-.034-1.9-.03-.434.027-.868,0-1.3-.061-1.4.362-2.753.411-4.143a121.982,121.982,0,0,1,3.572-17.984A4.015,4.015,0,0,1,522.772,349.9Z" transform="translate(-336.105 -252.358)"/>
    <path id="路径_7" data-name="路径 7" class="cls-7" d="M884.344,242.062c.034-.876.069-1.755.107-2.631.419-.868,0-1.813.259-2.7q.069-1.3.129-2.608c.381-.762-.023-1.592.286-2.346.3-1.458-.152-2.985.461-4.47-1.828,1.169-2.742,3.046-4.048,4.569-2.083,2.426-3.918,5.057-5.868,7.616-1.017,1.325-2.456,1.142-3.248-.339-.24-.449.126-.5.3-.716,1.988-2.387,3.922-4.828,5.971-7.162,2.334-2.665,4.4-5.518,6.561-8.3.465-.6.986-1.523,1.725-.861s2.365.876,1.9,2.445a16.488,16.488,0,0,0-.27,4.12c-.438.864.034,1.824-.293,2.7l-.08,2.285c-.457.853.034,1.813-.3,2.665-.031.621-.057,1.245-.088,1.866-.381.6,0,1.325-.293,1.942-.225,1.12-.453,2.243-.678,3.366l.255.118,7-8.96c.727-.929,1.409-1.9,2.216-2.761.381-.4.381-1.489,1.2-1.142a6.618,6.618,0,0,1,1.927,1.5c.381.381-.084.666-.316.925-4.611,5.076-8.857,10.452-12.988,15.924-.864,1.142-1.557-.042-2.212-.594a3.852,3.852,0,0,1,.027-1.873l.08-1.9C884.507,243.882,884.047,242.934,884.344,242.062Z" transform="translate(-555.722 -188.336)"/>
    <path id="路径_8" data-name="路径 8" class="cls-7" d="M357.258,240.4c-.4,2.726-.762,5.434-2.715,7.657-3.656,4.147-10.883,4.486-14.5.67-1.858-1.953-3.617-3.831-4.379-6.568-1.561-5.613,1.017-12.36,7.566-13.563.247-.042.495-.1.739-.148a9.675,9.675,0,0,1,3.02.034c5.445,1.2,8.229,5.068,9.969,9.976C357.273,239.053,356.839,239.78,357.258,240.4Z" transform="translate(-223.123 -192.333)"/>
    <path id="路径_9" data-name="路径 9" class="cls-7" d="M253.737,314.5a9.525,9.525,0,0,1,8.469-8.08,9.239,9.239,0,0,1,3.02-.019c5.259,1.477,9.055,4.482,10.407,10.015a10.187,10.187,0,0,1-9.028,12.516c-5.868.682-12.394-5.194-12.867-10.281A17.3,17.3,0,0,1,253.737,314.5Z" transform="translate(-172.591 -240.599)"/>
    <path id="路径_10" data-name="路径 10" class="cls-7" d="M439.538,174.422c8.271,1.523,11.7,12.863,5.856,19.4-1.744,1.957-4.189,2.94-6.572,3.869-3.138,1.215-3.008,1.108-4.322-2.129-2.224-5.491-4.626-10.909-7.3-16.2-.415-.819-.506-1.142.465-1.55,3.046-1.268,5.9-2.982,9.245-3.393A8.96,8.96,0,0,1,439.538,174.422Z" transform="translate(-279.894 -158.885)"/>
    <path id="路径_11" data-name="路径 11" class="cls-7" d="M734.472,168.712a3.985,3.985,0,0,0-.739-.152c-1.474,0-1.957-.605-1.5-2.09.762-2.437,1.268-4.95,2.109-7.364.381-1.047-.16-1.249-.781-1.424-2.532-.723-5.08-1.409-7.638-2.033-.762-.187-1.215.206-1.4,1.1-.548,2.627-1.306,5.209-1.839,7.84-.335,1.653-1.272.739-2.06.674-.967-.08-1.588-.442-1.226-1.523,1.969-5.883,3.256-11.949,4.794-17.946.213-.834.381-1.679.56-2.517,3.214.685,3.233.689,2.422,3.728-.381,1.523-.906,2.989-1.337,4.489-.293,1.02-.506,1.816,1.108,2.071,2.208.347,4.349,1.142,6.53,1.675,1.241.316,2.068.331,2.228-1.477.183-2.1,1.142-4.112,1.451-6.211.358-2.365,1.607-.419,2.349-.533.9-.141,1.078.506.8,1.523-1.458,5.236-2.791,10.51-4.12,15.783a10.724,10.724,0,0,0-.594,3.511C735.313,168.259,735.344,169.066,734.472,168.712Z" transform="translate(-460.952 -139.661)"/>
    <path id="路径_12" data-name="路径 12" class="cls-7" d="M968.959,310.405c4.189.91,6.911,3.652,9.028,7.178.575.96.647,1.546-.564,2.2s-1.683.343-2.22-.762c-1.367-2.829-3.3-5.091-6.534-5.864a3.751,3.751,0,0,0-2.433,0,9.217,9.217,0,0,0-7.753,6.492c-1.215,3.461.145,6.3,2.155,9.044,1.024,1.4,2.014.564,2.593-.053.952-1.017,2.235-1.63,3.081-2.711,1.112-1.424,1.942-1.344,2.863.209.445.762.762,1.089-.194,1.759a49.155,49.155,0,0,0-5.948,4.634,1.256,1.256,0,0,1-1.851.088,16.141,16.141,0,0,1-6.131-9,9.931,9.931,0,0,1,1.9-8.461,11.815,11.815,0,0,1,7.833-4.745A21.63,21.63,0,0,1,968.959,310.405Z" transform="translate(-606.775 -243.09)"/>
    <path id="路径_13" data-name="路径 13" class="cls-7" d="M208.074,417.274h-.613c-.613-.381-1.34,0-1.965-.293a12.014,12.014,0,0,1-9.519-9.717c-.663-4,.883-7.212,2.822-10.391.537-.88,1.188-1.085,2.178-.32.918.716,1.2,1.245.381,2.148a12.566,12.566,0,0,0-2.723,4.885c-1.34,4.36,2.391,8.316,5.415,9.561,5.769,2.387,10.319-1.337,12.337-5.681.472-1.013-.175-1.23-.762-1.523-1.759-.842-3.537-1.637-5.331-2.418-.613-.27-1.108-.7-.537-1.238s.312-2.437,1.832-1.687c2.509,1.238,4.885,2.749,7.5,3.808a.731.731,0,0,1,.446.929c-1.055,4.592-4.006,10.315-9.52,11.648C209.4,417.274,208.676,416.9,208.074,417.274Z" transform="translate(-136.806 -296.199)"/>
    <path id="路径_14" data-name="路径 14" class="cls-2" d="M769.458,766.087c-2.9,3.16-5.9,6.214-9.1,9.074-2.136-2.452-4.489-4.687-6.854-6.915-.621-.979-.445-1.675.461-2.5,2.09-1.9,4.109-3.911,6-6.012a1.9,1.9,0,0,1,2.665-.518c-.183.617.263.937.636,1.253C765.406,762.268,766.876,764.788,769.458,766.087Z" transform="translate(-481.907 -520.852)"/>
    <path id="路径_15" data-name="路径 15" class="cls-7" d="M1012.778,399.786c.381-2.593,1.683-4.364,4.4-4.851a6.077,6.077,0,0,1,6.325,2.86,18.928,18.928,0,0,1,2.742,5.944c.445,1.679-1.043,1.108-1.679,1.5-1.009.621-.857-.209-1.024-.822-.613-2.235-1.325-4.421-3.1-6.112a2.335,2.335,0,0,0-2.7-.762,2.909,2.909,0,0,0-1.8,2.464,14.061,14.061,0,0,0,.069,2.075,39.279,39.279,0,0,1,0,6.062c-1.238,4.345-3.477,5.963-7.578,5.658-2.144-.16-3.046-1.923-4.139-3.221a19.292,19.292,0,0,1-3.119-6.473c-.354-1.055.114-1.725,1.249-1.988s1.474.32,1.626,1.215a12.7,12.7,0,0,0,2.9,6.4c.762.845,1.55,1.866,2.841,1.436a3.5,3.5,0,0,0,2.719-2.97C1012.968,405.4,1012.458,402.581,1012.778,399.786Z" transform="translate(-635.423 -295.424)"/>
    <path id="路径_16" data-name="路径 16" class="cls-8" d="M641.582,134.325v1.036c-.171,1.1-.685,1.691-1.9,1.245-1.694-.107-3.865-.815-4.95.107s-.335,3.2-.381,4.874c-.076,4.227-.2,8.461,0,12.684.084,1.877-.541,2.285-2.151,2.06a6.51,6.51,0,0,0-.944,0,12.815,12.815,0,0,1-.046-3.808c.088-4.977.179-9.957.247-14.934a4.035,4.035,0,0,0-.289-1.07,2.921,2.921,0,0,0-2.224-.027c-1.192,0-2.387,0-3.579-.03-.545,0-1.458.381-1.264-.723.13-.743-.034-1.854,1.3-1.832.815,0,1.634-.03,2.448-.046,3.9.419,7.81.061,11.713.2C640.253,134.092,640.977,133.791,641.582,134.325Z" transform="translate(-401.986 -133.828)"/>
    <path id="路径_17" data-name="路径 17" class="cls-9" d="M827.335,182.506c-.126.244-.259.525-.407.8-3.122,5.773-6.127,11.6-8.819,17.584-.895,1.988-1.972.571-2.993.217-1.565-.544-.316-1.2,0-1.744,2.765-5.049,5.51-10.11,7.867-15.368.251-.56.6-1.059.845-1.618s.217-1.5.99-1.348a10.728,10.728,0,0,1,2.513,1.173A1.773,1.773,0,0,1,827.335,182.506Z" transform="translate(-519.808 -163.023)"/>
    <path id="路径_18" data-name="路径 18" class="cls-9" d="M537.268,169.594c-.621,0-1.047-.175-1.062-.838s0-1.405.876-1.592a23.015,23.015,0,0,1,3.48-.647c1.321-.069,1.177-.887,1.04-1.679-.168-.971-.567-1.9-.682-2.883-.088-.762-.605-1.729.784-2.1s1.363.678,1.58,1.432c.4,1.428-.042,3.427,1.23,4.17,1.112.636,2.768-.346,4.189-.628.826-.168,1.348.023,1.523.91s0,1.382-1.005,1.321a1.618,1.618,0,0,0-.537.156c-1.34.423-3.4,0-3.9,1.241-.438,1.1.445,2.742.8,4.131.251.986.183,1.523-1.028,1.873-1.493.423-1.367-.906-1.424-1.34-.206-1.523-.1-3.617-1.074-4.272-.9-.609-2.833.308-4.31.564A2.339,2.339,0,0,0,537.268,169.594Z" transform="translate(-347.577 -149.876)"/>
    <path id="路径_19" data-name="路径 19" class="cls-10" d="M647.768,134.267c-3.892-.088-7.783-.168-11.675-.27a3.82,3.82,0,0,1-2.033-.187h11.987C646.641,133.81,647.364,133.558,647.768,134.267Z" transform="translate(-408.172 -133.77)"/>
    <path id="路径_20" data-name="路径 20" class="cls-10" d="M1094.192,741.011c.11-3.427-.316-6.877.3-10.281v8.678C1094.5,739.949,1094.648,740.543,1094.192,741.011Z" transform="translate(-693.069 -503.422)"/>
    <path id="路径_21" data-name="路径 21" class="cls-10" d="M1094.468,563.767c-.682-3.294-.053-6.622-.263-9.927C1094.848,557.134,1094.349,560.458,1094.468,563.767Z" transform="translate(-693.063 -393.888)"/>
    <path id="路径_22" data-name="路径 22" class="cls-10" d="M219.314,543.976h-9.1a29.555,29.555,0,0,1,9.1,0Z" transform="translate(-145.716 -387.562)"/>
    <path id="路径_23" data-name="路径 23" class="cls-10" d="M1262.25,657.117a71.471,71.471,0,0,1,.3-8.377C1262.395,651.523,1262.943,654.341,1262.25,657.117Z" transform="translate(-797.16 -452.652)"/>
    <path id="路径_24" data-name="路径 24" class="cls-10" d="M1031.287,407.85c-.381,2.795.48,5.628-.274,8.408C1031.161,413.459,1030.625,410.634,1031.287,407.85Z" transform="translate(-653.933 -303.488)"/>
    <path id="路径_25" data-name="路径 25" class="cls-10" d="M1094.31,766.756V758.79A21.152,21.152,0,0,1,1094.31,766.756Z" transform="translate(-693.168 -520.797)"/>
    <path id="路径_26" data-name="路径 26" class="cls-10" d="M1062.27,754.79v7.97A21.012,21.012,0,0,1,1062.27,754.79Z" transform="translate(-673.092 -518.32)"/>
    <path id="路径_27" data-name="路径 27" class="cls-10" d="M1021.312,593.82a45.606,45.606,0,0,1-.289,7.235C1021.164,598.652,1020.661,596.211,1021.312,593.82Z" transform="translate(-647.754 -418.645)"/>
    <path id="路径_28" data-name="路径 28" class="cls-10" d="M840.29,593.651V586.82A15.959,15.959,0,0,1,840.29,593.651Z" transform="translate(-535.874 -414.31)"/>
    <path id="路径_29" data-name="路径 29" class="cls-10" d="M261.39,711.63v-6.82A16.53,16.53,0,0,1,261.39,711.63Z" transform="translate(-177.408 -487.372)"/>
    <path id="路径_30" data-name="路径 30" class="cls-10" d="M1197.12,787.95l6.443-.03A14.215,14.215,0,0,1,1197.12,787.95Z" transform="translate(-756.83 -538.835)"/>
    <path id="路径_31" data-name="路径 31" class="cls-10" d="M1040.32,419.912V413.85A13.2,13.2,0,0,1,1040.32,419.912Z" transform="translate(-659.737 -307.203)"/>
    <path id="路径_32" data-name="路径 32" class="cls-10" d="M589.469,325.027H584.18A10.281,10.281,0,0,1,589.469,325.027Z" transform="translate(-377.286 -251.989)"/>
    <path id="路径_33" data-name="路径 33" class="cls-10" d="M48.373,677.8v4.927a8.065,8.065,0,0,1,0-4.927Z" transform="translate(-45.264 -470.647)"/>
    <path id="路径_34" data-name="路径 34" class="cls-10" d="M166.211,544.735l-5.011.286C162.837,544.339,164.551,544.849,166.211,544.735Z" transform="translate(-115.368 -388.202)"/>
    <path id="路径_35" data-name="路径 35" class="cls-10" d="M53.888,573.772c-1.523.625-3.13-.088-4.668.263C50.747,573.437,52.331,573.852,53.888,573.772Z" transform="translate(-46.028 -406.189)"/>
    <path id="路径_36" data-name="路径 36" class="cls-10" d="M118.6,573.83a8.263,8.263,0,0,1-4.729,0Z" transform="translate(-86.06 -406.266)"/>
    <path id="路径_37" data-name="路径 37" class="cls-10" d="M262.634,545.041a22.467,22.467,0,0,1-4.6-.293C259.565,544.862,261.133,544.4,262.634,545.041Z" transform="translate(-175.327 -388.223)"/>
    <path id="路径_38" data-name="路径 38" class="cls-10" d="M201.2,790h4.158A6.211,6.211,0,0,1,201.2,790Z" transform="translate(-140.137 -540.123)"/>
    <path id="路径_39" data-name="路径 39" class="cls-10" d="M253.35,327.86v4.162A6.15,6.15,0,0,1,253.35,327.86Z" transform="translate(-172.204 -253.957)"/>
    <path id="路径_40" data-name="路径 40" class="cls-10" d="M985.269,310.016H981.13a6.568,6.568,0,0,1,4.139,0Z" transform="translate(-623.085 -242.7)"/>
    <path id="路径_41" data-name="路径 41" class="cls-10" d="M642.291,182.89l.046,3.808a4.9,4.9,0,0,1-.046-3.808Z" transform="translate(-413.044 -164.188)"/>
    <path id="路径_42" data-name="路径 42" class="cls-10" d="M204.854,755.83a6.063,6.063,0,0,1-3.994,0Z" transform="translate(-139.926 -518.964)"/>
    <path id="路径_43" data-name="路径 43" class="cls-10" d="M88.985,532.968H85.2a4.87,4.87,0,0,1,3.785,0Z" transform="translate(-68.307 -380.727)"/>
    <path id="路径_44" data-name="路径 44" class="cls-10" d="M1020.312,627.82a10.122,10.122,0,0,1-.263,3.484C1020.129,630.143,1019.726,628.943,1020.312,627.82Z" transform="translate(-647.146 -439.698)"/>
    <path id="路径_45" data-name="路径 45" class="cls-10" d="M271.09,676.212c1.108-.525,2.285-.259,3.427-.293C273.424,676.535,272.232,676.094,271.09,676.212Z" transform="translate(-183.414 -469.458)"/>
    <path id="路径_46" data-name="路径 46" class="cls-10" d="M1143.47,534.977h-3.4A4.211,4.211,0,0,1,1143.47,534.977Z" transform="translate(-721.504 -381.986)"/>
    <path id="路径_47" data-name="路径 47" class="cls-10" d="M1261.242,686.107a10.891,10.891,0,0,1,.274-3.457C1261.417,683.8,1261.833,685,1261.242,686.107Z" transform="translate(-796.514 -473.65)"/>
    <path id="路径_48" data-name="路径 48" class="cls-10" d="M152.387,554.82v3.4A4.032,4.032,0,0,1,152.387,554.82Z" transform="translate(-109.677 -394.495)"/>
    <path id="路径_49" data-name="路径 49" class="cls-10" d="M665.15,139.045c.944.061,1.8,0,1.9-1.245C667.153,139.346,666.521,139.753,665.15,139.045Z" transform="translate(-427.424 -136.268)"/>
    <path id="路径_50" data-name="路径 50" class="cls-10" d="M361.21,228.062l-3.02-.034A3.427,3.427,0,0,1,361.21,228.062Z" transform="translate(-237.348 -191.932)"/>
    <path id="路径_51" data-name="路径 51" class="cls-10" d="M168.2,678l3.012.023A3.427,3.427,0,0,1,168.2,678Z" transform="translate(-119.702 -470.771)"/>
    <path id="路径_52" data-name="路径 52" class="cls-10" d="M279.2,306.022l-3.02.019A3.358,3.358,0,0,1,279.2,306.022Z" transform="translate(-186.566 -240.218)"/>
    <path id="路径_53" data-name="路径 53" class="cls-10" d="M927.25,892.8c0-1.005,0-2.014.027-3.02a3.267,3.267,0,0,1-.027,3.02Z" transform="translate(-589.721 -601.909)"/>
    <path id="路径_54" data-name="路径 54" class="cls-10" d="M806.158,772.925H803.15a3.427,3.427,0,0,1,3.008,0Z" transform="translate(-512.876 -529.334)"/>
    <path id="路径_55" data-name="路径 55" class="cls-10" d="M1170.248,764.81v3.008A3.5,3.5,0,0,1,1170.248,764.81Z" transform="translate(-739.98 -524.525)"/>
    <path id="路径_56" data-name="路径 56" class="cls-10" d="M130.19,762.9l3.02.034a3.244,3.244,0,0,1-3.02-.034Z" transform="translate(-96.166 -523.342)"/>
    <path id="路径_57" data-name="路径 57" class="cls-10" d="M1225.1,567l-3.016-.03A3.4,3.4,0,0,1,1225.1,567Z" transform="translate(-772.286 -401.81)"/>
    <path id="路径_58" data-name="路径 58" class="cls-10" d="M1022.336,574.82a9.137,9.137,0,0,1-.3,3.081C1022.142,576.872,1021.711,575.795,1022.336,574.82Z" transform="translate(-648.386 -406.879)"/>
    <path id="路径_59" data-name="路径 59" class="cls-10" d="M289.35,661.83v-3.02A3.29,3.29,0,0,1,289.35,661.83Z" transform="translate(-194.721 -458.888)"/>
    <path id="路径_60" data-name="路径 60" class="cls-10" d="M151.29,750.786V747.74A3.115,3.115,0,0,1,151.29,750.786Z" transform="translate(-109.231 -513.955)"/>
    <path id="路径_61" data-name="路径 61" class="cls-11" d="M1186.17,616.487a2.025,2.025,0,0,1,.647-1.447,3.191,3.191,0,0,1-.244,2.262Z" transform="translate(-750.05 -431.784)"/>
    <path id="路径_62" data-name="路径 62" class="cls-10" d="M570.17,842.949a6.947,6.947,0,0,1,2.7.274C571.963,843.136,571.019,843.509,570.17,842.949Z" transform="translate(-368.61 -572.891)"/>
    <path id="路径_63" data-name="路径 63" class="cls-10" d="M455.811,174.056H453.18a2.844,2.844,0,0,1,2.631,0Z" transform="translate(-296.168 -158.518)"/>
    <path id="路径_64" data-name="路径 64" class="cls-10" d="M607.06,843.223a6.6,6.6,0,0,1,2.665-.27C608.888,843.5,607.951,843.136,607.06,843.223Z" transform="translate(-391.453 -572.891)"/>
    <path id="路径_65" data-name="路径 65" class="cls-10" d="M914.272,242.42a6.82,6.82,0,0,1,.293-2.7C914.477,240.619,914.873,241.574,914.272,242.42Z" transform="translate(-581.682 -199.379)"/>
    <path id="路径_66" data-name="路径 66" class="cls-10" d="M913.277,255.475a6.912,6.912,0,0,1,.3-2.665C913.479,253.69,913.878,254.638,913.277,255.475Z" transform="translate(-581.068 -207.484)"/>
    <path id="路径_67" data-name="路径 67" class="cls-10" d="M903.338,274.87a6.314,6.314,0,0,1-.282,2.665C903.148,276.656,902.771,275.712,903.338,274.87Z" transform="translate(-574.716 -221.144)"/>
    <path id="路径_68" data-name="路径 68" class="cls-10" d="M344.39,573.83a6.9,6.9,0,0,1-.282,2.665C344.2,575.612,343.823,574.656,344.39,573.83Z" transform="translate(-228.605 -406.266)"/>
    <path id="路径_69" data-name="路径 69" class="cls-10" d="M1187.5,567.022a6.349,6.349,0,0,1-2.764-.255C1185.673,566.812,1186.636,566.454,1187.5,567.022Z" transform="translate(-749.164 -401.849)"/>
    <path id="路径_70" data-name="路径 70" class="cls-10" d="M344.113,610.66a6.946,6.946,0,0,1,.274,2.7C343.82,612.507,344.193,611.551,344.113,610.66Z" transform="translate(-228.602 -429.072)"/>
    <path id="路径_71" data-name="路径 71" class="cls-10" d="M1059.1,654.71a4.568,4.568,0,0,1,.027,2.8C1059.119,656.58,1059.108,655.647,1059.1,654.71Z" transform="translate(-671.366 -456.349)"/>
    <path id="路径_72" data-name="路径 72" class="cls-10" d="M1031.11,672l2.635.034A2.7,2.7,0,0,1,1031.11,672Z" transform="translate(-654.034 -467.055)"/>
    <path id="路径_73" data-name="路径 73" class="cls-10" d="M904.321,260.88a6.656,6.656,0,0,1-.259,2.7C904.138,262.677,903.776,261.737,904.321,260.88Z" transform="translate(-575.333 -212.481)"/>
    <path id="路径_74" data-name="路径 74" class="cls-10" d="M204.19,677.978a5.85,5.85,0,0,1,2.665.3C205.976,678.161,205.028,678.564,204.19,677.978Z" transform="translate(-141.988 -470.749)"/>
    <path id="路径_75" data-name="路径 75" class="cls-10" d="M1038.759,549.036h-2.639A2.642,2.642,0,0,1,1038.759,549.036Z" transform="translate(-657.136 -390.695)"/>
    <path id="路径_76" data-name="路径 76" class="cls-10" d="M53.2,785.91h2.646A2.543,2.543,0,0,1,53.2,785.91Z" transform="translate(-48.492 -537.591)"/>
    <path id="路径_77" data-name="路径 77" class="cls-10" d="M636.93,140.442a2.837,2.837,0,0,1,2.224.027Z" transform="translate(-409.949 -137.771)"/>
    <path id="路径_78" data-name="路径 78" class="cls-10" d="M262.454,648l-2.254-.023a2.053,2.053,0,0,1,2.254.023Z" transform="translate(-176.671 -451.98)"/>
    <path id="路径_79" data-name="路径 79" class="cls-10" d="M1109.12,733h2.239a2.041,2.041,0,0,1-2.239,0Z" transform="translate(-702.339 -504.828)"/>
    <path id="路径_80" data-name="路径 80" class="cls-10" d="M1260.25,701.854a5.74,5.74,0,0,1,.255-2.384C1260.463,700.27,1260.791,701.107,1260.25,701.854Z" transform="translate(-795.903 -484.065)"/>
    <path id="路径_81" data-name="路径 81" class="cls-10" d="M905.361,247.87a5.4,5.4,0,0,1-.286,2.346C905.132,249.443,904.786,248.593,905.361,247.87Z" transform="translate(-575.958 -204.425)"/>
    <path id="路径_82" data-name="路径 82" class="cls-10" d="M839.306,616.015a4.688,4.688,0,0,1,.27-2.285C839.5,614.492,839.823,615.3,839.306,616.015Z" transform="translate(-535.24 -430.973)"/>
    <path id="路径_83" data-name="路径 83" class="cls-10" d="M1063.327,742.8a4.715,4.715,0,0,1-.266,2.342C1063.118,744.357,1062.786,743.531,1063.327,742.8Z" transform="translate(-673.788 -510.896)"/>
    <path id="路径_84" data-name="路径 84" class="cls-10" d="M1023.34,562.82a5.711,5.711,0,0,1-.282,2.319C1023.123,564.362,1022.784,563.536,1023.34,562.82Z" transform="translate(-649.021 -399.449)"/>
    <path id="路径_85" data-name="路径 85" class="cls-10" d="M984.89,317.274a2.627,2.627,0,0,1,2.433,0Z" transform="translate(-625.413 -247.217)"/>
    <path id="路径_86" data-name="路径 86" class="cls-10" d="M132.458,573l-2.258.019A2,2,0,0,1,132.458,573Z" transform="translate(-96.172 -405.542)"/>
    <path id="路径_87" data-name="路径 87" class="cls-10" d="M1034.11,728.92l2.258.027A1.965,1.965,0,0,1,1034.11,728.92Z" transform="translate(-655.891 -502.301)"/>
    <path id="路径_88" data-name="路径 88" class="cls-10" d="M839.587,574.135a4.98,4.98,0,0,1-.27-2.285C839.834,572.558,839.51,573.369,839.587,574.135Z" transform="translate(-535.251 -405.04)"/>
    <path id="路径_89" data-name="路径 89" class="cls-10" d="M759.15,208.652c.735.175.815-.491,1.116-.872C760.27,208.553,760.235,209.3,759.15,208.652Z" transform="translate(-485.631 -179.601)"/>
    <path id="路径_90" data-name="路径 90" class="cls-10" d="M1019.33,643.83a3.367,3.367,0,0,1-.259,1.931C1019.113,645.109,1018.846,644.42,1019.33,643.83Z" transform="translate(-646.557 -449.612)"/>
    <path id="路径_91" data-name="路径 91" class="cls-10" d="M1016.323,709.8v1.877A1.477,1.477,0,0,1,1016.323,709.8Z" transform="translate(-644.669 -490.462)"/>
    <path id="路径_92" data-name="路径 92" class="cls-10" d="M1259.217,713.535a3.7,3.7,0,0,1,.274-1.965C1259.457,712.233,1259.735,712.941,1259.217,713.535Z" transform="translate(-795.262 -491.558)"/>
    <path id="路径_93" data-name="路径 93" class="cls-10" d="M1258.206,722.644a3.465,3.465,0,0,1,.3-1.9C1258.446,721.372,1258.735,722.069,1258.206,722.644Z" transform="translate(-794.639 -497.236)"/>
    <path id="路径_94" data-name="路径 94" class="cls-10" d="M228,451.282l1.965-.282C229.359,451.529,228.651,451.244,228,451.282Z" transform="translate(-156.732 -330.208)"/>
    <path id="路径_95" data-name="路径 95" class="cls-10" d="M227.454,728.79a3.372,3.372,0,0,1-.286,1.969C227.2,730.092,226.91,729.384,227.454,728.79Z" transform="translate(-156.186 -502.221)"/>
    <path id="路径_96" data-name="路径 96" class="cls-10" d="M221.19,451l1.965.293C222.492,451.244,221.776,451.537,221.19,451Z" transform="translate(-152.515 -330.208)"/>
    <path id="路径_97" data-name="路径 97" class="cls-10" d="M260.323,733.473a4.33,4.33,0,0,1,.267-2C260.566,732.144,260.848,732.864,260.323,733.473Z" transform="translate(-176.732 -503.88)"/>
    <path id="路径_98" data-name="路径 98" class="cls-10" d="M912.231,266.652a3.545,3.545,0,0,1,.293-1.942C912.474,265.365,912.76,266.069,912.231,266.652Z" transform="translate(-580.403 -214.853)"/>
    <path id="路径_99" data-name="路径 99" class="cls-10" d="M275.968,649.066a4.265,4.265,0,0,1-1.938-.289C274.681,648.845,275.386,648.541,275.968,649.066Z" transform="translate(-185.234 -452.658)"/>
    <path id="路径_100" data-name="路径 100" class="cls-10" d="M1124.11,783h1.877A1.489,1.489,0,0,1,1124.11,783Z" transform="translate(-711.621 -535.789)"/>
    <path id="路径_101" data-name="路径 101" class="cls-10" d="M392.6,256.842c-.1-.647-.206-1.295-.3-1.942C392.848,255.464,392.567,256.172,392.6,256.842Z" transform="translate(-258.47 -208.778)"/>
    <path id="路径_102" data-name="路径 102" class="cls-10" d="M345.451,563.82a3.526,3.526,0,0,1-.3,1.9C345.2,565.092,344.907,564.391,345.451,563.82Z" transform="translate(-229.251 -400.068)"/>
    <path id="路径_103" data-name="路径 103" class="cls-10" d="M902.34,286.86l-.027,1.873a1.47,1.47,0,0,1,.027-1.873Z" transform="translate(-574.079 -228.569)"/>
    <path id="路径_104" data-name="路径 104" class="cls-10" d="M1059.339,554.83a3.75,3.75,0,0,1-.282,1.9C1059.115,556.1,1058.837,555.409,1059.339,554.83Z" transform="translate(-671.323 -394.501)"/>
    <path id="路径_105" data-name="路径 105" class="cls-10" d="M560.15,841.882a3.58,3.58,0,0,1,1.942.293C561.437,842.126,560.733,842.415,560.15,841.882Z" transform="translate(-362.406 -572.232)"/>
    <path id="路径_106" data-name="路径 106" class="cls-10" d="M619.06,842.191a3.56,3.56,0,0,1,1.9-.3C620.4,842.419,619.7,842.134,619.06,842.191Z" transform="translate(-398.884 -572.239)"/>
    <path id="路径_107" data-name="路径 107" class="cls-12" d="M1224.347,674.8c-.046.7.221,1.439-.263,2.087C1224.118,676.182,1223.806,675.44,1224.347,674.8Z" transform="translate(-773.491 -468.789)"/>
    <path id="路径_108" data-name="路径 108" class="cls-10" d="M73.463,546.83c-.091.655-.187,1.306-.278,1.961C73.211,548.128,72.926,547.42,73.463,546.83Z" transform="translate(-60.835 -389.547)"/>
    <path id="路径_109" data-name="路径 109" class="cls-12" d="M1197.631,748.027c-.7,0-1.424.228-2.071-.236C1196.261,747.841,1196.992,747.536,1197.631,748.027Z" transform="translate(-755.865 -513.957)"/>
    <path id="路径_110" data-name="路径 110" class="cls-12" d="M435.939,389.862a152.615,152.615,0,0,0-4.189,20.181,3.516,3.516,0,0,1-2.368.476c-2.026.019-4.055-.046-6.092.023-4.055.137-6.23,2.129-7.018,6.092-2.387,12.056-5.232,24.012-7.875,36.01-2.33,10.578-4.626,21.16-6.995,31.73-.263,1.173-.514,2.349-.876,3.5A3.876,3.876,0,0,1,399.4,489.4c-5.662,5.064-6.416,11.477-4.95,18.426a16.964,16.964,0,0,0,2.052,5.285,4.6,4.6,0,0,0,1.268,1.763,6.123,6.123,0,0,0,1.485.929,15.813,15.813,0,0,0,8.7,2.178c7.421,0,14.778-.762,22.15-1.436a33.915,33.915,0,0,1,4.189-.118q40.572.057,81.133,0a5.19,5.19,0,0,0,1.873-.2c4.1-1.436,5.544-3.808,4.611-8.046q-5.331-24.343-10.742-48.671c-3.206-14.553-6.576-29.069-9.561-43.672-.651-3.187-2.928-5.064-6.538-5.274-2.151-.126-4.31,0-6.473-.046a3.322,3.322,0,0,1-2.365-.487c-1.081-6.835-2.254-13.647-4.569-20.208a19.718,19.718,0,0,1,6.69,1.988c28.635,11.9,46.368,32.915,51.516,63.545,7.162,42.678-20.562,83.128-62.886,92.716-44.132,10-88.577-18.658-97.773-63.023a81.83,81.83,0,0,1,56.352-95.157,2.044,2.044,0,0,1,.377-.027Z" transform="translate(-249.272 -292.324)"/>
    <path id="路径_111" data-name="路径 111" class="cls-13" d="M1122.2,620.188a60.342,60.342,0,0,1-10.407,23.2c.625-4.189-1.42-6.473-4.95-7.817,1.325-.267,2.608-.263,3.869-.438a7.235,7.235,0,0,0,4.95-3.172c2.189-2.924,3.427-6.317,4.95-9.584.381-.861.807-1.714,1.215-2.57C1122.159,619.712,1122.342,619.788,1122.2,620.188Z" transform="translate(-700.927 -434.713)"/>
    <path id="路径_112" data-name="路径 112" class="cls-14" d="M1095.658,637.38c.579,2.627.632,4.988,1.744,7.235C1094.9,643.29,1094.3,640.891,1095.658,637.38Z" transform="translate(-693.564 -445.618)"/>
    <path id="路径_113" data-name="路径 113" class="cls-15" d="M1107.858,693.7c-.217.289-.423.594-.663.864a9.045,9.045,0,0,1-1.946,1.774A5.112,5.112,0,0,1,1107.858,693.7Z" transform="translate(-699.943 -480.492)"/>
    <path id="路径_114" data-name="路径 114" class="cls-16" d="M1146.551,618.647l-.381-.381c.1-.381.167-.8.628-.986A1.207,1.207,0,0,1,1146.551,618.647Z" transform="translate(-725.281 -433.171)"/>
    <path id="路径_115" data-name="路径 115" class="cls-12" d="M94.815,610.026A101.052,101.052,0,0,1,89.956,636.3c-.845,2.487-2.037,2.985-4.569,2.079a18.993,18.993,0,0,1-2.955-1.272c-2.327-1.318-3.141-2.94-2.525-5.552q2.932-12.394,6.039-24.724c.655-2.6,2.376-3.5,5.27-3.081,2.665.381,3.614,1.523,3.6,4.387C94.811,608.758,94.815,609.39,94.815,610.026Z" transform="translate(-64.907 -424.733)"/>
    <path id="路径_116" data-name="路径 116" class="cls-1" d="M436.67,519.908q7.836-35.275,15.669-70.555c.069-.308.088-.624.126-.94.491-4.086,3.1-6.492,7.235-6.565,2.913-.053,5.83,0,8.758-.019q-.206,2.109-.415,4.208a6.945,6.945,0,0,1-1.405,1.523,6.322,6.322,0,1,0,9.527.609c-.487-.663-1.142-1.2-1.576-1.9q.209-2.243.426-4.493a3.306,3.306,0,0,1,2.513-.621q18.182-.023,36.353,0a3.31,3.31,0,0,1,2.513.628c.057,1.5.617,2.943.449,4.463-.891,1.428-2.285,2.506-2.665,4.288a6.5,6.5,0,0,0,3.259,7.037,6.268,6.268,0,0,0,8.229-8.918,25.825,25.825,0,0,1-1.984-2.525c-.624-1.375-.358-2.9-.716-4.318l7.616.019c5.464,0,7.357,1.687,8.48,7.094,1.55,7.44,3.252,14.85,4.893,22.264q7.635,34.487,15.277,68.974c.891,4.029-.731,6.907-4.684,8.248a3.271,3.271,0,0,1-1.5.141H476.823a5.157,5.157,0,0,1-.941-.05c-.453-1.283.685-.895,1.142-.99a56.164,56.164,0,0,1,6.233-.716c10.1-.925,20.208-1.873,30.242-3.3a55.073,55.073,0,0,0,9.634-1.9c4.752-1.592,6.576-4.569,4.611-9.973a3.349,3.349,0,0,1,.381-3.659,6.254,6.254,0,0,0,.567-7c-.895-1.793-1.116-3.2.126-5.045,1.394-2.064.887-4.52.061-6.793a16.958,16.958,0,0,0-1.142-2.4,3.038,3.038,0,0,1,.141-3.374c2.026-3.317,1.653-6.473-1-9.4-3.362-3.69-7.7-5.232-12.543-5.563a43.953,43.953,0,0,0-11.34,1.047c-2.551.491-5.087,1.066-7.677,1.39-3.393.426-4.489-.956-3.271-4.189.693-1.839,1.683-3.557,2.308-5.426,1.984-5.952,2.707-11.88-.426-17.71a13.141,13.141,0,0,0-4.539-5.026,7.946,7.946,0,0,0-2.795-1.165c-2.38-.453-3.754.5-3.88,2.894-.327,6.092-1.439,12.082-2.365,18.1a12.912,12.912,0,0,1-2.6,5.99,63.962,63.962,0,0,0-10.993,21.784,5.993,5.993,0,0,1-3.461,4.189,166.643,166.643,0,0,1-16.141,6.763c-2.924,1.055-5.917,1.9-8.826,3C437.812,520.2,437.176,520.7,436.67,519.908Z" transform="translate(-285.944 -324.102)"/>
    <path id="路径_117" data-name="路径 117" class="cls-12" d="M578.709,403.48H537.33a109.058,109.058,0,0,1,4.52-20.372c.2-.594.487-1.142.739-1.736,2.338-1.58,5.095-1.306,7.688-1.637a73.121,73.121,0,0,1,18.909.35c1.222.164,2.559.03,3.56,1.009.762.381.891,1.142,1.142,1.854A106.44,106.44,0,0,1,578.709,403.48Z" transform="translate(-348.275 -285.791)"/>
    <path id="路径_118" data-name="路径 118" class="cls-1" d="M581.278,360.5a85.223,85.223,0,0,0-30.158.278,32.464,32.464,0,0,1,6.968-12.455,7.615,7.615,0,0,1,2.094-1.607,6.473,6.473,0,0,1,3.484-.613c2.928.171,5.913-.514,8.758.6,4.741,3.263,6.961,8.236,9.036,13.308C581.537,360.141,581.35,360.35,581.278,360.5Z" transform="translate(-356.814 -265.218)"/>
    <path id="路径_119" data-name="路径 119" class="cls-17" d="M519.474,454.24a6.47,6.47,0,0,1,3.122,7.418,6.782,6.782,0,0,1-13.221-.228A6.636,6.636,0,0,1,512.929,454l-.023,1.032a6.5,6.5,0,0,0-.3,1.474,3.444,3.444,0,1,0,6.854.286,10.9,10.9,0,0,1-.057-1.318C519.421,455.062,519.448,454.651,519.474,454.24Z" transform="translate(-330.854 -332.065)"/>
    <path id="路径_120" data-name="路径 120" class="cls-17" d="M648.567,454.26c3.046,1.969,4.169,4.95,3.046,8.164a6.779,6.779,0,0,1-13.141-1.5,6.267,6.267,0,0,1,3.263-6.546c.061.316.122.636.187.952-.034.312-.027.625-.069.937a3.574,3.574,0,0,0,2.334,4.189,3.687,3.687,0,0,0,4.409-2.186v.023a3.621,3.621,0,0,0,0-2.429Z" transform="translate(-410.868 -332.226)"/>
    <path id="路径_121" data-name="路径 121" class="cls-18" d="M587.181,344.233H574.92A9.664,9.664,0,0,1,587.181,344.233Z" transform="translate(-371.552 -262.737)"/>
    <path id="路径_122" data-name="路径 122" class="cls-19" d="M524.3,457.152c.739,2.018.308,3.606-1.257,4.642a3.762,3.762,0,0,1-4.718-.327c-1.428-1.314-1.6-2.883-.518-4.756,0,.636.027,1.268.042,1.9a2.853,2.853,0,0,0,2.841,3.092,2.983,2.983,0,0,0,3.294-2.921C524.042,458.229,523.836,457.624,524.3,457.152Z" transform="translate(-335.756 -333.743)"/>
    <path id="路径_123" data-name="路径 123" class="cls-20" d="M653.481,460.013a3.48,3.48,0,0,1-4.078,2.631,3.95,3.95,0,0,1-3.081-4.154,8.229,8.229,0,0,1,.484-1.42,7.615,7.615,0,0,1,.171,1.3c-.049,1.626.518,2.928,2.132,3.408a3.171,3.171,0,0,0,3.968-1.39A2.011,2.011,0,0,1,653.481,460.013Z" transform="translate(-415.743 -333.966)"/>
    <path id="路径_124" data-name="路径 124" class="cls-21" d="M665.177,458.48a1.994,1.994,0,0,1,0,2.429Q665.173,459.7,665.177,458.48Z" transform="translate(-427.439 -334.839)"/>
    <path id="路径_125" data-name="路径 125" class="cls-12" d="M349.447,236c5.811.061,11.02,7.383,9.192,12.912-1.108,3.339-4.821,5.091-8.514,4.006-4.242-1.241-7.844-6.641-7.357-11.024A6.381,6.381,0,0,1,349.447,236Z" transform="translate(-227.771 -197.074)"/>
    <path id="路径_126" data-name="路径 126" class="cls-12" d="M277.506,324.258c.046,4.09-3.427,7.071-7.692,6.626-3.7-.381-8.088-4.1-9.093-7.7-1.318-4.71,1.649-8.678,6.576-8.8C272.122,314.259,277.456,319.418,277.506,324.258Z" transform="translate(-176.8 -245.606)"/>
    <path id="路径_127" data-name="路径 127" class="cls-12" d="M451.8,191.644a8.8,8.8,0,0,1-7.067,8.267c-.9.122-1.07-.449-1.329-1.009-2.125-4.569-4.227-9.162-6.382-13.708-.381-.788-.114-1.142.552-1.455,3.046-1.436,6.134-2.441,9.4-.605A10.14,10.14,0,0,1,451.8,191.644Z" transform="translate(-286.056 -163.723)"/>
    <path id="路径_128" data-name="路径 128" class="cls-22" d="M425.707,545a206.821,206.821,0,0,0,23.353-8.632c3.735-1.618,5.959-3.686,7.121-7.932,2.1-7.654,6.226-14.47,11.225-20.707,1.569-1.95,1.455-4.4,1.835-6.652a131.027,131.027,0,0,0,2.041-16.374c.1-2.346,2.049-3.534,4.543-2.852,3.952,1.078,6.492,3.808,8.145,7.414,2.6,5.643,1.9,11.343-.046,16.987-.7,2.022-1.687,3.945-2.471,5.94-1.024,2.6-.293,3.617,2.437,3.2,4.489-.685,8.937-1.691,13.438-2.25,6.6-.822,12.947-.1,18.121,4.623,3.956,3.6,4.371,7.143,1.443,11.61-.548.834-.16,1.245.168,1.832a13.238,13.238,0,0,1,2.132,7.159,6.115,6.115,0,0,1-1.462,4,1.392,1.392,0,0,0-.225,1.938c1.9,3.393,2.528,6.782-.621,9.87-.544.533-.118.9.038,1.34a18.965,18.965,0,0,1,1.055,3.046c.853,4.885-1.843,8.168-7.509,9.139-1.363.236-2.761.324-4.135.491-1.733.209-3.309,1.074-5.144,1.237-8.061.712-16.1,1.664-24.153,2.5-4.09.426-8.183.792-12.276,1.184-1.58.826-3.362.251-5,.7-6.275.5-12.547,1.211-18.833,1.428-4.383.152-8.857.88-13.179-.613a9.165,9.165,0,0,1-3.4-1.9,16.793,16.793,0,0,1-1.26-1.142,3.931,3.931,0,0,1-1.032-1.348c-1.626-1.295-1.717-3.332-2.224-5.072a19.707,19.707,0,0,1,2.209-16.374C422.98,547.283,424.53,546.312,425.707,545Z" transform="translate(-274.981 -349.192)"/>
    <path id="路径_129" data-name="路径 129" class="cls-23" d="M526.11,722.564a16.8,16.8,0,0,1,5-.7c.423.735,1.142.415,1.714.415q37.4.023,74.8,0c.762,0,1.523-.027,2.285-.042a2.721,2.721,0,0,1-2,.381h-79.88C527.378,722.629,526.746,722.587,526.11,722.564Z" transform="translate(-341.327 -497.93)"/>
    <path id="路径_130" data-name="路径 130" class="cls-24" d="M427.033,714.35a2.738,2.738,0,0,1,1.112,1.39c.129.061.179.13.152.213s-.065.129-.1.129C427.665,715.607,426.839,715.317,427.033,714.35Z" transform="translate(-279.959 -493.279)"/>
    <path id="路径_131" data-name="路径 131" class="cls-25" d="M430.048,718.373a.948.948,0,0,1-.05-.343,1.649,1.649,0,0,1,1.18,1.07,1.116,1.116,0,0,1-1.131-.727Z" transform="translate(-281.813 -495.558)"/>
    <path id="路径_132" data-name="路径 132" class="cls-26" d="M501.084,571.389c-12.5,1.234-24.4,2.361-36.3,3.595-8.689.9-17.394,1.546-26.11,2.132-7.943.537-13.384-4.482-13.579-12.455a21.2,21.2,0,0,1,1.219-8.027,10.38,10.38,0,0,1,7.155-6.77,145.914,145.914,0,0,0,25-10.045,4.487,4.487,0,0,0,2.582-3.355c2.041-8.727,6.355-16.393,11.8-23.4,1.451-1.862,1.694-3.918,2.087-5.978a143.289,143.289,0,0,0,2.334-17.874c.107-1.721,1.108-1.653,2.22-1.253,3.282,1.169,5.243,3.671,6.473,6.786,1.653,4.128,1.371,8.312.187,12.49a34.27,34.27,0,0,1-2.346,6.214,15.127,15.127,0,0,0-.636,1.382c-1.58,4.04-.762,7.063,4.836,6.546,4.368-.4,8.571-1.675,12.9-2.189,5.144-.609,10.148-.423,14.58,2.738a12.042,12.042,0,0,1,1.466,1.207c4.166,4.116,3.72,8.259-1.314,11.176-4.017,2.33-8.5,3.2-13.061,3.7a25.167,25.167,0,0,1-8.122-.168c-2.692-.583-3.686-2.239-3.271-4.95s2.22-4.162,4.508-5.205a31.119,31.119,0,0,1,9.2-2.2c.91-.114,2.441.381,2.349-1.142-.11-1.748-1.641-.883-2.57-.822a25.115,25.115,0,0,0-11.107,2.921c-3.838,2.193-5.6,6.051-3.987,9.973a9.8,9.8,0,0,1,.731,5.635,4.977,4.977,0,0,0,2.513,5.019c1.489.9,1.436,1.569.529,2.871a8.009,8.009,0,0,0-1.226,5.639,5.2,5.2,0,0,0,3.225,4.387c1.611.647,1.9,1.557,1.763,3.138C496.819,566.344,497.482,569.314,501.084,571.389Z" transform="translate(-278.768 -352.946)"/>
    <path id="路径_133" data-name="路径 133" class="cls-26" d="M616.4,625.909c-3.808-.122-7.4-.308-10.814-1.634-2.867-1.112-4.071-3.012-3.6-5.479.183-.971.514-1.447,1.733-1.287a36.357,36.357,0,0,0,23.064-4.189c.712-.381,1.142-.339,1.542.354a12.68,12.68,0,0,1,1.8,4.752,4.851,4.851,0,0,1-3,5.556C623.7,625.719,619.945,625.719,616.4,625.909Z" transform="translate(-388.251 -430.571)"/>
    <path id="路径_134" data-name="路径 134" class="cls-26" d="M617.1,658.077c-2.285-.053-4.569.213-6.8-.445-1.9-.567-3.576-1.523-3.918-3.671a7.276,7.276,0,0,1,1.931-5.754c.537-.659,1.142-.228,1.74-.107a43.283,43.283,0,0,0,17.516.049,3.131,3.131,0,0,1,.735-.179c1.093.084,2.121-1.87,3.275-.053,1.432,2.25,1.622,4.832.331,6.4A7.4,7.4,0,0,1,628.7,656.6,30.957,30.957,0,0,1,617.1,658.077Z" transform="translate(-390.989 -451.663)"/>
    <path id="路径_135" data-name="路径 135" class="cls-26" d="M627.642,686.474c-1.523,0-3.046.11-4.569-.027-3.195-.289-5.495-5.106-3.808-7.821.267-.434.59-.35.963-.32,5.769.442,11.484.3,17.017-1.656.526-.187.944-.232,1.245.381,1.687,3.5,1.839,7.006-2.982,8.648A19.691,19.691,0,0,1,627.642,686.474Z" transform="translate(-398.659 -469.858)"/>
  </g>
</svg>
